<svg id="Layer_1" data-name="Layer 1" xmlns="http://www.w3.org/2000/svg" xmlns:xlink="http://www.w3.org/1999/xlink" viewBox="0 0 457.34 507.06"><defs><style>.cls-1,.cls-3{fill:none;}.cls-2{clip-path:url(#clip-path);}.cls-3{stroke:#25f662;stroke-miterlimit:10;stroke-width:20px;}</style><clipPath id="clip-path" transform="translate(-10 -13.94)"><path class="cls-1" d="M451.86,244.5c0,122.05-98.95,221-221,221s-221-98.95-221-221,98.94-221,221-221c75.05,0,146.54,40.72,186.22,101.94C425.55,138.52,451.86,183.73,451.86,244.5Z"/></clipPath></defs><g class="cls-2"><image width="978" height="1107" transform="translate(0 7.06) scale(0.45)" xlink:href="../../../../Downloads/image.png"/></g><path class="cls-1" d="M34,470" transform="translate(-10 -13.94)"/><path class="cls-3" d="M417.47,137.51C447,205.57,459.2,282.8,408.59,363.33" transform="translate(-10 -13.94)"/><path class="cls-3" d="M28,158.78C65.76,92.64,118.07,35,209.35,23.87" transform="translate(-10 -13.94)"/><path class="cls-3" d="M292.87,469.67C215.38,484,139.21,480,73.71,414.49" transform="translate(-10 -13.94)"/><path class="cls-3" d="M426.93,111.54c11,19.89,25.08,43.72,30.53,78.31" transform="translate(-10 -13.94)"/></svg>